# AST/ASF file generated using VICON BodyLanguage
# -----------------------------------------------
:version 1.10
:name VICON
:units
  mass 1.0
  length 0.45
  angle deg
:documentation
   .ast/.asf automatically generated from VICON data using
   VICON BodyBuilder and BodyLanguage model FoxedUp or BRILLIANT.MOD
:root
   order TX TY TZ RX RY RZ
   axis XYZ
   position 0 0 0  
   orientation 0 0 0 
:bonedata
  begin
     id 1 
     name lhipjoint
     direction 0.627457 -0.725269 0.283342 
     length 2.53237 
     axis 0 0 0  XYZ
  end
  begin
     id 2 
     name lfemur
     direction 0.34202 -0.939693 0  
     length 7.32496  
     axis 0 0 20  XYZ
    dof rx ry rz
    limits (-160.0 20.0)
           (-70.0 70.0)
           (-60.0 70.0)
  end
  begin
     id 3 
     name ltibia
     direction 0.34202 -0.939693 0   
     length 7.69674   
     axis 0 0 20   XYZ
    dof rx
    limits (-10.0 170.0)
  end
  begin
     id 4 
     name lfoot
     direction 0.127289 -0.349722 0.928166   
     length 1.8612   
     axis -90 7.62852e-016 20   XYZ
    dof rx rz
    limits (-45.0 90.0)
           (-70.0 20.0)
  end
  begin
     id 5 
     name ltoes
     direction 1.53561e-011 -4.21864e-011 1   
     length 0.925608   
     axis -90 7.62852e-016 20   XYZ
    dof rx
    limits (-90.0 20.0)
  end
  begin
     id 6 
     name rhipjoint
     direction -0.609094 -0.738725 0.288599   
     length 2.48624  
     axis 0 0 0  XYZ 
  end
  begin
     id 7 
     name rfemur
     direction -0.34202 -0.939693 0   
     length 7.44259   
     axis 0 0 -20   XYZ
    dof rx ry rz
    limits (-160.0 20.0)
           (-70.0 70.0)
           (-70.0 60.0)
  end
  begin
     id 8 
     name rtibia
     direction -0.34202 -0.939693 0   
     length 7.7781   
     axis 0 0 -20   XYZ
    dof rx
    limits (-10.0 170.0)
 end
 begin
     id 9 
     name rfoot
     direction -0.107015 -0.294021 0.949789   
     length 2.14741  
     axis -90 -7.62852e-016 -20   XYZ
    dof rx rz
    limits (-45.0 90.0)
           (-20.0 70.0)
  end
  begin
     id 10 
     name rtoes
     direction -1.53497e-011 -4.21924e-011 1   
     length 1.0706   
     axis -90 -7.62852e-016 -20   XYZ
    dof rx
    limits (-90.0 20.0)
  end
  begin
     id 11 
     name lowerback
     direction -0.0142066 0.998112 -0.0597545   
     length 1.86627   
     axis 0 0 0   XYZ
    dof rx ry rz
    limits (-20.0 45.0)
           (-30.0 30.0)
           (-30.0 30.0)
  end
  begin
     id 12 
     name upperback
     direction 0.00547294 0.999744 0.0219437   
     length 1.86272   
     axis 0 0 0   XYZ
    dof rx ry rz
    limits (-20.0 45.0)
           (-30.0 30.0)
           (-30.0 30.0)
  end
  begin
     id 13 
     name thorax
     direction 0.0116162 0.998704 0.0495538   
     length 1.8703   
     axis 0 0 0   XYZ
    dof rx ry rz
    limits (-20.0 45.0)
           (-30.0 30.0)
           (-30.0 30.0)
  end
  begin
     id 14 
     name lowerneck
     direction -0.0106574 0.998739 0.0490586   
     length 1.8074   
     axis 0 0 0   XYZ
    dof rx ry rz
    limits (-20.0 45.0)
           (-30.0 30.0)
           (-30.0 30.0)
  end
  begin
     id 15 
     name upperneck
     direction 0.030527 0.976587 -0.212944   
     length 1.80681   
     axis 0 0 0   XYZ
    dof rx ry rz
    limits (-20.0 45.0)
           (-30.0 30.0)
           (-30.0 30.0)
  end
  begin
     id 16
     name head
     direction 0.00869225 0.997035 -0.0764531  
     length 1.8313  
     axis 0 0 0   XYZ
    dof rx ry rz
    limits (-20.0 45.0)
           (-30.0 30.0)
           (-30.0 30.0)
  end
  begin
     id 17 
     name lclavicle
     direction 0.915958 0.399447 0.0382386  
     length 3.78965  
     axis 0 0 0   XYZ
    dof ry rz
    limits (-20.0 10.0)
           (0.0 20.0)
  end
  begin
     id 18 
     name lhumerus
     direction 1 -4.48967e-011 3.19303e-027   
     length 4.78095   
     axis -180 -30 -90   XYZ
    dof rx ry rz
    limits (-60.0 90.0)
           (-90.0 90.0)
           (-90.0 90.0)
  end
  begin
     id 19
     name lradius
     direction 1 -4.48967e-011 -3.77974e-027   
     length 3.58615   
     axis -180 -30 -90   XYZ
    dof rx
    limits (-10.0 170.0)
  end
  begin
     id 20
     name lwrist
     direction 1 -4.48927e-011 1.2807e-027   
     length 1.79307   
     axis 1.91374e-015 90 90   XYZ
    dof ry
    limits (-180.0 0.0)
 end
  begin
     id 21 
     name lhand
     direction 1 -4.49036e-011 2.5614e-027   
     length 0.659812   
     axis -1.63439e-015 90 90   XYZ
    dof rx rz
    limits (-90.0 90.0)
           (-45.0 45.0)
  end
  begin
     id 22 
     name lfingers
     direction 1 -4.49052e-011 5.1228e-027   
     length 0.531957   
     axis -3.26879e-015 90 90   XYZ
    dof rx
    limits (0.0 90.0)
  end
  begin
     id 23
     name lthumb
     direction 0.707107 -6.35012e-011 0.707107   
     length 0.763787   
     axis -90 45 2.85299e-015   XYZ
    dof rx rz
    limits (-45.0 45.0)
           (-45.0 45.0)
  end
  begin
     id 24 
     name rclavicle
     direction -0.895351 0.435135 0.0948887   
     length 3.70497  
     axis 0 0 0   XYZ 
    dof ry rz
    limits (-10.0 20.0)
           (-20.0 0.0)
  end
  begin
     id 25 
     name rhumerus
     direction -1 -4.48971e-011 2.38946e-027  
     length 4.48913   
     axis -180 30 90   XYZ
    dof rx ry rz
    limits (-90.0 60.0)
           (-90.0 90.0)
           (-90.0 90.0)
  end
  begin
     id 26 
     name rradius
     direction -1 -4.4895e-011 4.38668e-027   
     length 3.7051   
     axis -180 30 90   XYZ
    dof rx
    limits (-10.0 170.0)
  end
  begin
     id 27 
     name rwrist
     direction -1 -4.49007e-011 1.2807e-027   
     length 1.85255   
     axis 1.91374e-015 -90 -90   XYZ
    dof ry
    limits (-180.0 0.0)
  end
  begin
     id 28
     name rhand
     direction -1 -4.48851e-011 2.5614e-027   
     length 0.449136   
     axis -1.63439e-015 -90 -90   XYZ
    dof rx rz
    limits (-90.0 90.0)
           (-45.0 45.0)
  end
  begin
     id 29
     name rfingers
     direction -1 -4.49128e-011 5.1228e-027   
     length 0.362105   
     axis -3.26879e-015 -90 -90   XYZ
    dof rx
    limits (0.0 90.0)
  end
  begin
     id 30
     name rthumb
     direction -0.707107 -6.34851e-011 0.707107   
     length 0.519912   
     axis -90 -45 -2.85299e-015   XYZ
    dof rx rz
    limits (-45.0 45.0)
           (-45.0 45.0)
  end
:hierarchy
  begin
    root lhipjoint rhipjoint lowerback
    lhipjoint lfemur
    lfemur ltibia
    ltibia lfoot
    lfoot ltoes
    rhipjoint rfemur
    rfemur rtibia
    rtibia rfoot
    rfoot rtoes
    lowerback upperback
    upperback thorax
    thorax lowerneck lclavicle rclavicle
    lowerneck upperneck
    upperneck head
    lclavicle lhumerus
    lhumerus lradius
    lradius lwrist
    lwrist lhand lthumb
    lhand lfingers
    rclavicle rhumerus
    rhumerus rradius
    rradius rwrist
    rwrist rhand rthumb
    rhand rfingers
  end

#!OML:ASF I:\Actors\actors\Patient Classification 2\Patient 1\Session 1\actor1.ASF
:FULLY-SPECIFIED
:DEGREES
22
root -1.02959 18.0912 5.78909 -0.552154 -4.48596 -5.97807
lowerback 2.03781 1.85011 5.0428
upperback -0.481516 2.61406 0.989071
thorax -1.45932 1.26403 -1.88714
lowerneck -11.3841 -1.99977 -1.03317
upperneck 21.2454 -3.46809 3.96453
head 8.58043 -1.31655 1.13426
rclavicle 3.42779e-014 8.34896e-015
rhumerus -46.1371 -3.25761 -88.6242
rradius 41.0057
rwrist 21.3722
rhand -6.14583 -26.6176
rfingers 7.12502
rthumb 19.6922 -55.6402
lclavicle 3.42779e-014 8.34896e-015
lhumerus -42.1158 -0.181451 91.316
lradius 39.8416
lwrist -9.16977
lhand -4.98702 -25.1305
lfingers 7.12502
lthumb 20.8059 3.77401
rfemur 9.61126 -0.257286 22.21
rtibia -1.59028e-015
rfoot -15.6336 -7.64258
rtoes 8.63328
lfemur 20.6333 -8.59231 -11.4151
ltibia -20.6131
lfoot -4.93259 23.632
ltoes -6.54053
23
root -1.02982 18.092 5.78883 -0.548313 -4.46967 -5.99334
lowerback 2.0441 1.85645 5.07239
upperback -0.483038 2.62365 0.984241
thorax -1.46225 1.26843 -1.90906
lowerneck -11.362 -2.01463 -1.0838
upperneck 21.203 -3.49175 4.03238
head 8.56479 -1.32572 1.16308
rclavicle 3.2933e-014 2.26615e-014
rhumerus -46.1425 -3.28201 -88.6317
rradius 41.0059
rwrist 21.3243
rhand -6.04171 -26.5763
rfingers 7.12502
rthumb 19.7923 -55.5886
lclavicle 3.2933e-014 2.26615e-014
lhumerus -42.1303 -0.134122 91.296
lradius 39.8094
lwrist -9.22661
lhand -4.90643 -25.1881
lfingers 7.12502
lthumb 20.8833 3.70787
rfemur 9.61497 -0.273566 22.226
rtibia -4.77083e-015
rfoot -15.6648 -7.62954
rtoes 8.73984
lfemur 20.6269 -8.56878 -11.3894
ltibia -20.6178
lfoot -4.91631 23.6139
ltoes -6.56377
24
root -1.02957 18.0911 5.78858 -0.572747 -4.45308 -6.0179
lowerback 2.06581 1.85593 5.10556
upperback -0.470304 2.62485 0.992433
thorax -1.46019 1.26901 -1.91968
lowerneck -11.3395 -2.02167 -1.12589
upperneck 21.1651 -3.49992 4.07131
head 8.54948 -1.3298 1.18243
rclavicle 4.345e-014 7.95139e-015
rhumerus -46.1562 -3.26073 -88.6364
rradius 41.0274
rwrist 21.2496
rhand -6.03533 -26.626
rfingers 7.12502
rthumb 19.7984 -55.6376
lclavicle 4.345e-014 7.95139e-015
lhumerus -42.1383 -0.190057 91.333
lradius 39.7802
lwrist -9.20504
lhand -4.9163 -25.2367
lfingers 7.12502
lthumb 20.8738 3.66032
rfemur 9.64387 -0.291871 22.2529
rtibia -2.06736e-014
rfoot -15.6905 -7.61755
rtoes 8.81279
lfemur 20.6516 -8.59458 -11.3684
ltibia -20.6162
lfoot -4.89525 23.62
ltoes -6.73853
25
root -1.02956 18.0905 5.78851 -0.575979 -4.45461 -6.01606
lowerback 2.0676 1.85178 5.09615
upperback -0.465459 2.61908 0.996888
thorax -1.45721 1.26638 -1.90969
lowerneck -11.3428 -2.01717 -1.10867
upperneck 21.1604 -3.49069 4.04329
head 8.54739 -1.32696 1.17107
rclavicle -6.95436e-015 -2.98177e-015
rhumerus -46.1649 -3.28003 -88.636
rradius 41.0429
rwrist 21.2519
rhand -6.0639 -26.7326
rfingers 7.12502
rthumb 19.7709 -55.7471
lclavicle -6.95436e-015 -2.98177e-015
lhumerus -42.1616 -0.239021 91.3587
lradius 39.7877
lwrist -9.21399
lhand -4.97963 -25.3033
lfingers 7.12502
lthumb 20.813 3.60039
rfemur 9.64151 -0.290112 22.2486
rtibia 2.06736e-014
rfoot -15.6724 -7.60154
rtoes 8.91878
lfemur 20.6484 -8.59961 -11.3712
ltibia -20.6122
lfoot -4.88227 23.617
ltoes -6.67052
26
root -1.03001 18.0909 5.78864 -0.570068 -4.46053 -6.00965
lowerback 2.0627 1.85685 5.08241
upperback -0.465073 2.62509 0.992769
thorax -1.45405 1.26957 -1.90623
lowerneck -11.3493 -2.01465 -1.08874
upperneck 21.1531 -3.4877 4.02902
head 8.54542 -1.32542 1.16317
rclavicle -1.57102e-014 3.18055e-015
rhumerus -46.1736 -3.34333 -88.6267
rradius 41.0601
rwrist 21.2905
rhand -6.03805 -26.7145
rfingers 7.12502
rthumb 19.7958 -55.7264
lclavicle -1.57102e-014 3.18055e-015
lhumerus -42.1965 -0.220873 91.3372
lradius 39.8103
lwrist -9.31112
lhand -5.01565 -25.3825
lfingers 7.12502
lthumb 20.7784 3.52499
rfemur 9.63915 -0.28351 22.2411
rtibia -9.54166e-015
rfoot -15.6504 -7.58968
rtoes 8.9826
lfemur 20.6314 -8.58951 -11.3734
ltibia -20.5972
lfoot -4.89581 23.5971
ltoes -6.56933
27
root -1.03082 18.0914 5.78836 -0.571276 -4.44476 -6.00721
lowerback 2.06789 1.85181 5.06946
upperback -0.461075 2.61823 0.993795
thorax -1.45393 1.26634 -1.89791
lowerneck -11.3385 -2.01189 -1.08359
upperneck 21.1296 -3.47969 4.01063
head 8.53477 -1.32358 1.157
rclavicle -1.44274e-014 -4.77083e-015
rhumerus -46.1626 -3.35968 -88.6192
rradius 41.0441
rwrist 21.3292
rhand -6.0099 -26.5749
rfingers 7.12502
rthumb 19.8228 -55.584
lclavicle -1.44274e-014 -4.77083e-015
lhumerus -42.2208 -0.202493 91.3187
lradius 39.7906
lwrist -9.39762
lhand -5.05981 -25.4911
lfingers 7.12502
lthumb 20.7359 3.42101
rfemur 9.64977 -0.299688 22.242
rtibia 2.38542e-014
rfoot -15.6583 -7.5994
rtoes 8.85327
lfemur 20.6129 -8.59575 -11.3697
ltibia -20.5698
lfoot -4.92747 23.5776
ltoes -6.3857
28
root -1.03102 18.0921 5.78762 -0.560948 -4.41705 -5.9774
lowerback 2.08138 1.84001 5.03863
upperback -0.478066 2.60299 0.977435
thorax -1.48062 1.25804 -1.89805
lowerneck -11.2816 -2.00349 -1.01964
upperneck 21.1005 -3.46663 3.95236
head 8.51185 -1.31946 1.12849
rclavicle 1.81733e-014 5.56597e-015
rhumerus -46.1692 -3.38712 -88.6284
rradius 41.018
rwrist 21.3941
rhand -5.8518 -26.4942
rfingers 7.12502
rthumb 19.9748 -55.4875
lclavicle 1.81733e-014 5.56597e-015
lhumerus -42.2592 -0.175357 91.281
lradius 39.7454
lwrist -9.43221
lhand -5.02819 -25.5869
lfingers 7.12502
lthumb 20.7663 3.32193
rfemur 9.63871 -0.326013 22.2097
rtibia 1.59028e-014
rfoot -15.6683 -7.60767
rtoes 8.7923
lfemur 20.5742 -8.60365 -11.3953
ltibia -20.5466
lfoot -4.93347 23.564
ltoes -6.17975
29
root -1.03068 18.0924 5.78683 -0.538706 -4.39728 -5.94453
lowerback 2.08134 1.83642 5.01825
upperback -0.501128 2.59813 0.949705
thorax -1.50428 1.25478 -1.91556
lowerneck -11.2351 -1.99877 -0.945183
upperneck 21.0873 -3.4647 3.90831
head 8.49673 -1.31792 1.10178
rclavicle -1.82261e-014 3.18055e-015
rhumerus -46.2012 -3.39573 -88.6561
rradius 41.0319
rwrist 21.4003
rhand -5.62979 -26.5276
rfingers 7.12502
rthumb 20.1882 -55.4985
lclavicle -1.82261e-014 3.18055e-015
lhumerus -42.2879 -0.143653 91.2312
lradius 39.7201
lwrist -9.40014
lhand -4.90122 -25.6048
lfingers 7.12502
lthumb 20.8883 3.29061
rfemur 9.60671 -0.343637 22.1717
rtibia -3.18055e-015
rfoot -15.6625 -7.61703
rtoes 8.91513
lfemur 20.5296 -8.58671 -11.4239
ltibia -20.5336
lfoot -4.91145 23.5362
ltoes -6.31327
30
root -1.03099 18.0926 5.78615 -0.52429 -4.37972 -5.94581
lowerback 2.07333 1.82688 5.01629
upperback -0.509339 2.58517 0.949635
thorax -1.50922 1.24808 -1.91408
lowerneck -11.2251 -1.99323 -0.9247
upperneck 21.0958 -3.45481 3.87849
head 8.49658 -1.31467 1.0895
rclavicle -7.08481e-015 2.38542e-015
rhumerus -46.2239 -3.34762 -88.6623
rradius 41.0373
rwrist 21.4194
rhand -5.49708 -26.6189
rfingers 7.12502
rthumb 20.3157 -55.5764
lclavicle -7.08481e-015 2.38542e-015
lhumerus -42.3139 -0.119828 91.2187
lradius 39.7351
lwrist -9.34252
lhand -4.84187 -25.5356
lfingers 7.12502
lthumb 20.9453 3.35348
rfemur 9.58244 -0.360835 22.1723
rtibia -3.18055e-015
rfoot -15.6592 -7.62615
rtoes 8.94078
lfemur 20.5025 -8.55602 -11.4116
ltibia -20.5268
lfoot -4.88533 23.4966
ltoes -6.48632
